Coordinates
version=1
nRows=11
nColumns=46
inDegrees=yes

Units are S.I. units (second, meters, Newtons, ...)
Angles are in degrees.

endheader
time	pelvis_tilt	pelvis_list	pelvis_rotation	pelvis_tx	pelvis_ty	pelvis_tz	bb_angle	bb_tx	bb_ty	bb_tz	hip_flexion_r	hip_adduction_r	hip_rotation_r	knee_angle_r	knee_angle_r_beta	ankle_angle_r	subtalar_angle_r	mtp_angle_r	crank_angle_r	hip_flexion_l	hip_adduction_l	hip_rotation_l	knee_angle_l	knee_angle_l_beta	ankle_angle_l	subtalar_angle_l	mtp_angle_l	crank_angle_l	lumbar_extension	lumbar_bending	lumbar_rotation	arm_flex_r	arm_add_r	arm_rot_r	elbow_flex_r	pro_sup_r	wrist_flex_r	wrist_dev_r	arm_flex_l	arm_add_l	arm_rot_l	elbow_flex_l	pro_sup_l	wrist_flex_l	wrist_dev_l
      2.50000000	    -11.39770659	      6.67848888	      4.55414665	      0.10852468	      1.14495670	     -0.28498164	      0.00000000	      0.50000000	      0.00000000	      0.25000000	     41.21225787	    -13.43737955	     -2.52794271	     36.94770098	      0.64485903	    -19.61491508	     -0.99585005	      0.00000000	      0.00000000	     85.89415900	     -7.18304812	     -5.15302626	    109.98621676	      1.91962161	      1.02671886	     -3.58597380	      0.00000000	      0.00000000	    -60.85415245	     -0.61624727	     -9.79328491	     86.79328915	    -11.50043237	     40.26395796	     44.41954493	     42.46109215	      0.00000000	      0.00000000	     88.35975972	    -22.92660391	     48.34979117	     45.29636435	     45.34578997	      0.00000000	      0.00000000
      2.50500000	    -11.36046727	      6.77492287	      4.79322505	      0.10780859	      1.14459828	     -0.28508035	      0.00000000	      0.50000000	      0.00000000	      0.25000000	     41.34959347	    -13.70778541	     -2.63140270	     38.04306586	      0.66397676	    -19.66661388	     -1.77464070	      0.00000000	      0.00000000	     86.30458192	     -6.68625780	     -5.19409353	    109.66910754	      1.91408701	      1.24714392	     -3.96000330	      0.00000000	      0.00000000	    -60.87797113	     -0.55846517	     -9.90553760	     87.01458976	    -11.53594406	     40.52621856	     44.09159290	     42.43165297	      0.00000000	      0.00000000	     88.34036294	    -22.81500877	     48.09378003	     45.42407108	     45.32850059	      0.00000000	      0.00000000
      2.51000000	    -11.27099487	      6.66205261	      4.84719467	      0.10727504	      1.14489179	     -0.28476113	      0.00000000	      0.50000000	      0.00000000	      0.25000000	     41.17526204	    -13.56747541	     -2.44577668	     38.60785082	      0.67383411	    -19.75163669	     -1.87801409	      0.00000000	      0.00000000	     86.51563356	     -6.47168305	     -5.04514516	    109.13869905	      1.90482964	      1.42098231	     -4.06220445	      0.00000000	      0.00000000	    -60.94763820	     -0.56269529	     -9.90085527	     87.00766853	    -11.52089331	     40.59024324	     44.02607562	     42.42747222	      0.00000000	      0.00000000	     88.29907101	    -22.81078224	     48.03729870	     45.44291836	     45.32415419	      0.00000000	      0.00000000
      2.51500000	    -11.38980355	      6.81153017	      5.10014366	      0.10652085	      1.14387542	     -0.28510647	      0.00000000	      0.50000000	      0.00000000	      0.25000000	     41.69998389	    -13.92742707	     -2.47019850	     40.15247908	      0.70079296	    -19.53184722	     -2.91024677	      0.00000000	      0.00000000	     86.93947827	     -5.86960803	     -5.10878256	    108.68118713	      1.89684455	      1.90976315	     -4.25247304	      0.00000000	      0.00000000	    -60.74052009	     -0.46402303	    -10.51043767	     87.57961069	    -11.00199990	     42.32479426	     42.44456106	     42.32003683	      0.00000000	      0.00000000	     87.78250053	    -22.96537214	     46.16186850	     46.02065696	     45.18854303	      0.00000000	      0.00000000
      2.52000000	    -11.24937568	      6.67689769	      5.21105784	      0.10583459	      1.14342434	     -0.28509984	      0.00000000	      0.50000000	      0.00000000	      0.25000000	     41.77340055	    -13.89044555	     -2.49264326	     41.39320762	      0.72244776	    -19.25768565	     -3.53512669	      0.00000000	      0.00000000	     87.01629584	     -5.40922293	     -4.80198078	    108.16221306	      1.88778674	      2.68715778	     -4.34024889	      0.00000000	      0.00000000	    -60.84376099	     -0.36268154	    -10.46445252	     87.68690698	    -11.00333571	     42.33346553	     42.37513623	     42.30296039	      0.00000000	      0.00000000	     87.76243113	    -22.95417827	     46.08890167	     46.13188083	     45.20068186	      0.00000000	      0.00000000
      2.52500000	    -11.16791016	      6.56645826	      5.37623583	      0.10517992	      1.14282013	     -0.28515654	      0.00000000	      0.50000000	      0.00000000	      0.25000000	     41.96333719	    -13.92234539	     -2.62432334	     42.77705290	      0.74660042	    -18.88895697	     -4.38801727	      0.00000000	      0.00000000	     87.04701156	     -4.86656691	     -4.50972033	    107.55987616	      1.87727398	      3.62962561	     -4.30799305	      0.00000000	      0.00000000	    -60.89651249	     -0.26000998	    -10.49616264	     87.77349799	    -11.01040998	     42.33208746	     42.27402966	     42.27877840	      0.00000000	      0.00000000	     87.73845477	    -22.89771795	     45.98867648	     46.28448491	     45.21618994	      0.00000000	      0.00000000
      2.53000000	    -11.18966456	      6.50624654	      5.59436468	      0.10453198	      1.14203304	     -0.28536698	      0.00000000	      0.50000000	      0.00000000	      0.25000000	     42.29567681	    -14.05688385	     -2.80884409	     44.22641204	      0.77189651	    -18.55254792	     -5.47479958	      0.00000000	      0.00000000	     87.04963829	     -4.21547995	     -4.21432160	    106.86146559	      1.86508442	      4.86145987	     -3.85890268	      0.00000000	      0.00000000	    -60.83385118	     -0.14598130	    -10.62348641	     87.79698277	    -10.98867491	     42.36636154	     42.07749734	     42.23643451	      0.00000000	      0.00000000	     87.65367970	    -22.84939838	     45.72084976	     46.53746320	     45.23179843	      0.00000000	      0.00000000
      2.53500000	    -11.06888533	      6.32675497	      5.65707945	      0.10389612	      1.14136189	     -0.28526318	      0.00000000	      0.50000000	      0.00000000	      0.25000000	     42.51348039	    -13.98068213	     -2.98369961	     45.72692811	      0.79808545	    -18.15505913	     -6.35855497	      0.00000000	      0.00000000	     86.81947550	     -3.74481974	     -3.84723244	    106.10893181	      1.85195023	      6.12503196	     -4.04399442	      0.00000000	      0.00000000	    -60.93289593	     -0.06261175	    -10.54485448	     87.86210520	    -10.94131678	     42.36820552	     42.00750955	     42.21820859	      0.00000000	      0.00000000	     87.66895152	    -22.83932160	     45.56167187	     46.65097253	     45.23391935	      0.00000000	      0.00000000
      2.54000000	    -11.05990631	      6.27362037	      5.89387003	      0.10327722	      1.14058593	     -0.28536402	      0.00000000	      0.50000000	      0.00000000	      0.25000000	     42.85391370	    -14.13525574	     -3.23495161	     47.30069458	      0.82555286	    -17.75754103	     -7.41266589	      0.00000000	      0.00000000	     86.51745559	     -3.04763077	     -3.57869547	    105.17577827	      1.83566362	      7.72848050	     -3.65224657	      0.00000000	      0.00000000	    -60.92434320	      0.03794675	    -10.66929549	     87.88645179	    -10.96406566	     42.35129787	     41.82015806	     42.16989579	      0.00000000	      0.00000000	     87.59763118	    -22.72274881	     45.17136716	     46.90724213	     45.23661649	      0.00000000	      0.00000000
      2.54500000	    -10.93902960	      6.03689615	      5.88736512	      0.10254949	      1.13980087	     -0.28528399	      0.00000000	      0.50000000	      0.00000000	      0.25000000	     43.10814568	    -13.93270272	     -3.25986065	     48.80272210	      0.85176818	    -17.42586881	     -8.04453914	      0.00000000	      0.00000000	     86.07197399	     -2.57994449	     -3.15951019	    104.20307485	      1.81868675	      9.13549269	     -4.01216148	      0.00000000	      0.00000000	    -60.98260247	      0.14084803	    -10.46538729	     87.91470291	    -10.91820535	     42.34021030	     41.77810863	     42.15628197	      0.00000000	      0.00000000	     87.63805221	    -22.71901912	     45.01254412	     46.99898456	     45.23489514	      0.00000000	      0.00000000
      2.55000000	    -10.90072382	      5.86426458	      5.95695676	      0.10196729	      1.13885654	     -0.28533728	      0.00000000	      0.50000000	      0.00000000	      0.25000000	     43.48433280	    -13.90676617	     -3.49146939	     50.40173900	      0.87967629	    -16.95881343	     -8.84212451	      0.00000000	      0.00000000	     85.56415070	     -2.01771749	     -2.82685506	    103.09642275	      1.79937202	     10.83883437	     -4.27021852	      0.00000000	      0.00000000	    -60.99346682	      0.17643428	    -10.38746848	     87.96971918	    -10.97944085	     42.28414868	     41.68849198	     42.12803097	      0.00000000	      0.00000000	     87.58228715	    -22.60131215	     44.83181008	     47.15187413	     45.24211279	      0.00000000	      0.00000000
